<?xml version="1.0" encoding="UTF-8" standalone="no"?>
<!DOCTYPE svg PUBLIC "-//W3C//DTD SVG 1.1//EN" "http://www.w3.org/Graphics/SVG/1.1/DTD/svg11.dtd">
<svg version="1.1" xmlns="http://www.w3.org/2000/svg" xmlns:xlink="http://www.w3.org/1999/xlink" preserveAspectRatio="xMidYMid meet" viewBox="0 0 640 640" width="640" height="640"><defs><path d="M620 0C631.05 0 640 8.95 640 20C640 144 640 496 640 620C640 631.05 631.05 640 620 640C496 640 144 640 20 640C8.95 640 0 631.05 0 620C0 496 0 144 0 20C0 8.95 8.95 0 20 0C144 0 496 0 620 0Z" id="dCz4nzxb"></path><path d="M457.02 116.49C468.06 116.49 477.02 125.45 477.02 136.49C477.02 201.26 477.02 375.58 477.02 440.35C477.02 451.4 468.06 460.35 457.02 460.35C390.49 460.35 210.91 460.35 144.39 460.35C133.34 460.35 124.39 451.4 124.39 440.35C124.39 375.58 124.39 201.26 124.39 136.49C124.39 125.45 133.34 116.49 144.39 116.49C210.91 116.49 390.49 116.49 457.02 116.49Z" id="c4LlF5TGxm"></path><path d="M380.14 205.96C388.83 205.96 395.88 213.01 395.88 221.71C395.88 231.54 395.88 245.3 395.88 255.13C395.88 263.83 388.83 270.88 380.14 270.88C369.25 270.88 352.34 270.88 341.45 270.88C332.75 270.88 325.71 263.83 325.71 255.13C325.71 245.3 325.71 231.54 325.71 221.71C325.71 213.01 332.75 205.96 341.45 205.96C352.34 205.96 369.25 205.96 380.14 205.96Z" id="a1cexxyYZ0"></path><path d="M303.7 260.35C312.7 260.35 320 267.65 320 276.66C320 289.89 320 313.27 320 326.5C320 335.51 312.7 342.81 303.7 342.81C293.8 342.81 280.41 342.81 270.51 342.81C261.51 342.81 254.21 335.51 254.21 326.5C254.21 313.27 254.21 289.89 254.21 276.66C254.21 267.65 261.51 260.35 270.51 260.35C280.41 260.35 293.8 260.35 303.7 260.35Z" id="bxsfKTcw6"></path><path d="M453.05 177.89C457.81 177.89 461.67 174.04 461.67 169.28C461.67 166.44 461.67 166.54 461.67 163.71C461.67 158.95 457.81 155.09 453.05 155.09C441.62 155.09 415.93 155.09 404.5 155.09C399.74 155.09 395.88 158.95 395.88 163.71C395.88 166.54 395.88 166.44 395.88 169.28C395.88 174.04 399.74 177.89 404.5 177.89C415.93 177.89 441.62 177.89 453.05 177.89Z" id="c6VINI19sg"></path><path d="M435.35 208.83C435.35 213.3 438.98 216.93 443.45 216.93C447.1 216.93 449.92 216.93 453.56 216.93C458.04 216.93 461.67 213.3 461.67 208.83C461.67 198.08 461.67 173.94 461.67 163.19C461.67 158.72 458.04 155.09 453.57 155.09C449.93 155.09 447.1 155.09 443.46 155.09C438.99 155.09 435.36 158.71 435.36 163.19C435.36 173.94 435.35 198.08 435.35 208.83Z" id="e2LhdmdJCK"></path><path d="M235.66 205.96C244.35 205.96 251.4 213.01 251.4 221.71C251.4 231.54 251.4 245.3 251.4 255.13C251.4 263.83 244.35 270.88 235.66 270.88C224.77 270.88 207.86 270.88 196.97 270.88C188.28 270.88 181.23 263.83 181.23 255.13C181.23 245.3 181.23 231.54 181.23 221.71C181.23 213.01 188.28 205.96 196.97 205.96C207.86 205.96 224.77 205.96 235.66 205.96Z" id="avd8k16mV"></path><path d="M366.1 295.44C374.8 295.44 381.85 302.49 381.85 311.18C381.85 321.02 381.85 334.77 381.85 344.61C381.85 353.3 374.8 360.35 366.1 360.35C333.34 360.35 250.79 360.35 218.03 360.35C209.33 360.35 202.28 353.3 202.28 344.61C202.28 334.77 202.28 321.02 202.28 311.18C202.28 302.49 209.33 295.44 218.03 295.44C250.79 295.44 333.34 295.44 366.1 295.44Z" id="gECp8nspu"></path><path d="M233.56 295.44C240.85 295.44 246.76 301.35 246.76 308.64C246.76 324.94 246.76 360.67 246.76 376.98C246.76 384.27 240.85 390.18 233.56 390.18C225.55 390.18 214.72 390.18 206.71 390.18C199.42 390.18 193.51 384.27 193.51 376.98C193.51 360.67 193.51 324.94 193.51 308.64C193.51 301.35 199.42 295.44 206.71 295.44C214.72 295.44 225.55 295.44 233.56 295.44Z" id="clJ5k9B8P"></path><path d="M374.22 295.44C381.51 295.44 387.42 301.35 387.42 308.64C387.42 324.94 387.42 360.67 387.42 376.98C387.42 384.27 381.51 390.18 374.22 390.18C366.21 390.18 355.38 390.18 347.36 390.18C340.08 390.18 334.17 384.27 334.17 376.98C334.17 360.67 334.17 324.94 334.17 308.64C334.17 301.35 340.08 295.44 347.36 295.44C355.38 295.44 366.21 295.44 374.22 295.44Z" id="b3v7S7oa3"></path><path d="M363.34 301.58C371.62 301.58 378.34 308.29 378.34 316.58C378.34 325.95 378.34 339.05 378.34 348.42C378.34 356.71 371.62 363.42 363.34 363.42C331.83 363.42 252.3 363.42 220.79 363.42C212.51 363.42 205.79 356.71 205.79 348.42C205.79 339.05 205.79 325.95 205.79 316.58C205.79 308.29 212.51 301.58 220.79 301.58C252.3 301.58 331.83 301.58 363.34 301.58Z" id="a3e8sVPHyr"></path><path d="M305.33 265.61C313.43 265.61 320 272.18 320 280.29C320 293.84 320 319.84 320 333.4C320 341.5 313.43 348.07 305.33 348.07C296.42 348.07 284.37 348.07 275.46 348.07C267.36 348.07 260.79 341.5 260.79 333.4C260.79 319.84 260.79 293.84 260.79 280.29C260.79 272.18 267.36 265.61 275.46 265.61C284.37 265.61 296.42 265.61 305.33 265.61Z" id="cMZNiQ66D"></path></defs><g><g><g><use xlink:href="#dCz4nzxb" opacity="1" fill="#231336" fill-opacity="1"></use></g><g><g><filter id="shadow6248511" x="96.39" y="88.49" width="428.63" height="419.86" filterUnits="userSpaceOnUse" primitiveUnits="userSpaceOnUse"><feFlood></feFlood><feComposite in2="SourceAlpha" operator="in"></feComposite><feGaussianBlur stdDeviation="1"></feGaussianBlur><feOffset dx="20" dy="20" result="afterOffset"></feOffset><feFlood flood-color="#308a3d" flood-opacity="0.5"></feFlood><feComposite in2="afterOffset" operator="in"></feComposite><feMorphology operator="dilate" radius="1"></feMorphology><feComposite in2="SourceAlpha" operator="out"></feComposite></filter><path d="M457.02 116.49C468.06 116.49 477.02 125.45 477.02 136.49C477.02 201.26 477.02 375.58 477.02 440.35C477.02 451.4 468.06 460.35 457.02 460.35C390.49 460.35 210.91 460.35 144.39 460.35C133.34 460.35 124.39 451.4 124.39 440.35C124.39 375.58 124.39 201.26 124.39 136.49C124.39 125.45 133.34 116.49 144.39 116.49C210.91 116.49 390.49 116.49 457.02 116.49Z" id="aUsebKiB6" fill="white" fill-opacity="1" filter="url(#shadow6248511)"></path></g><use xlink:href="#c4LlF5TGxm" opacity="1" fill="#2bd877" fill-opacity="1"></use></g><g><use xlink:href="#a1cexxyYZ0" opacity="1" fill="#231336" fill-opacity="1"></use><g><filter id="shadow11458125" x="312.71" y="192.96" width="101.18" height="95.91" filterUnits="userSpaceOnUse" primitiveUnits="userSpaceOnUse"><feFlood></feFlood><feComposite in2="SourceAlpha" operator="out"></feComposite><feGaussianBlur stdDeviation="1"></feGaussianBlur><feOffset dx="5" dy="5" result="afterOffset"></feOffset><feFlood flood-color="#4bb082" flood-opacity="0.8"></feFlood><feComposite in2="afterOffset" operator="in"></feComposite><feMorphology operator="dilate" radius="1"></feMorphology><feComposite in2="SourceAlpha" operator="in"></feComposite></filter><path d="M380.14 205.96C388.83 205.96 395.88 213.01 395.88 221.71C395.88 231.54 395.88 245.3 395.88 255.13C395.88 263.83 388.83 270.88 380.14 270.88C369.25 270.88 352.34 270.88 341.45 270.88C332.75 270.88 325.71 263.83 325.71 255.13C325.71 245.3 325.71 231.54 325.71 221.71C325.71 213.01 332.75 205.96 341.45 205.96C352.34 205.96 369.25 205.96 380.14 205.96Z" id="do4KYtZTA" fill="white" fill-opacity="1" filter="url(#shadow11458125)"></path></g></g><g><use xlink:href="#bxsfKTcw6" opacity="1" fill="#231336" fill-opacity="1"></use><g><filter id="shadow3986083" x="241.21" y="247.35" width="96.79" height="113.46" filterUnits="userSpaceOnUse" primitiveUnits="userSpaceOnUse"><feFlood></feFlood><feComposite in2="SourceAlpha" operator="out"></feComposite><feGaussianBlur stdDeviation="1"></feGaussianBlur><feOffset dx="5" dy="5" result="afterOffset"></feOffset><feFlood flood-color="#4bb082" flood-opacity="0.8"></feFlood><feComposite in2="afterOffset" operator="in"></feComposite><feMorphology operator="dilate" radius="1"></feMorphology><feComposite in2="SourceAlpha" operator="in"></feComposite></filter><path d="M303.7 260.35C312.7 260.35 320 267.65 320 276.66C320 289.89 320 313.27 320 326.5C320 335.51 312.7 342.81 303.7 342.81C293.8 342.81 280.41 342.81 270.51 342.81C261.51 342.81 254.21 335.51 254.21 326.5C254.21 313.27 254.21 289.89 254.21 276.66C254.21 267.65 261.51 260.35 270.51 260.35C280.41 260.35 293.8 260.35 303.7 260.35Z" id="a3cL3ZGr3d" fill="white" fill-opacity="1" filter="url(#shadow3986083)"></path></g></g><g><use xlink:href="#c6VINI19sg" opacity="1" fill="#bfffdb" fill-opacity="1"></use></g><g><use xlink:href="#e2LhdmdJCK" opacity="1" fill="#bfffdb" fill-opacity="1"></use></g><g><use xlink:href="#avd8k16mV" opacity="1" fill="#231336" fill-opacity="1"></use><g><filter id="shadow12058129" x="168.23" y="192.96" width="101.18" height="95.91" filterUnits="userSpaceOnUse" primitiveUnits="userSpaceOnUse"><feFlood></feFlood><feComposite in2="SourceAlpha" operator="out"></feComposite><feGaussianBlur stdDeviation="1"></feGaussianBlur><feOffset dx="5" dy="5" result="afterOffset"></feOffset><feFlood flood-color="#4bb083" flood-opacity="0.8"></feFlood><feComposite in2="afterOffset" operator="in"></feComposite><feMorphology operator="dilate" radius="1"></feMorphology><feComposite in2="SourceAlpha" operator="in"></feComposite></filter><path d="M235.66 205.96C244.35 205.96 251.4 213.01 251.4 221.71C251.4 231.54 251.4 245.3 251.4 255.13C251.4 263.83 244.35 270.88 235.66 270.88C224.77 270.88 207.86 270.88 196.97 270.88C188.28 270.88 181.23 263.83 181.23 255.13C181.23 245.3 181.23 231.54 181.23 221.71C181.23 213.01 188.28 205.96 196.97 205.96C207.86 205.96 224.77 205.96 235.66 205.96Z" id="b1iwspBpUe" fill="white" fill-opacity="1" filter="url(#shadow12058129)"></path></g></g><g><use xlink:href="#gECp8nspu" opacity="1" fill="#231336" fill-opacity="1"></use><g><filter id="shadow3242492" x="189.28" y="282.44" width="210.56" height="95.91" filterUnits="userSpaceOnUse" primitiveUnits="userSpaceOnUse"><feFlood></feFlood><feComposite in2="SourceAlpha" operator="out"></feComposite><feGaussianBlur stdDeviation="1"></feGaussianBlur><feOffset dx="5" dy="5" result="afterOffset"></feOffset><feFlood flood-color="#4bb082" flood-opacity="0.8"></feFlood><feComposite in2="afterOffset" operator="in"></feComposite><feMorphology operator="dilate" radius="1"></feMorphology><feComposite in2="SourceAlpha" operator="in"></feComposite></filter><path d="M366.1 295.44C374.8 295.44 381.85 302.49 381.85 311.18C381.85 321.02 381.85 334.77 381.85 344.61C381.85 353.3 374.8 360.35 366.1 360.35C333.34 360.35 250.79 360.35 218.03 360.35C209.33 360.35 202.28 353.3 202.28 344.61C202.28 334.77 202.28 321.02 202.28 311.18C202.28 302.49 209.33 295.44 218.03 295.44C250.79 295.44 333.34 295.44 366.1 295.44Z" id="c3bjlViv7" fill="white" fill-opacity="1" filter="url(#shadow3242492)"></path></g></g><g><use xlink:href="#clJ5k9B8P" opacity="1" fill="#231336" fill-opacity="1"></use><g><filter id="shadow14280855" x="180.51" y="282.44" width="84.25" height="125.74" filterUnits="userSpaceOnUse" primitiveUnits="userSpaceOnUse"><feFlood></feFlood><feComposite in2="SourceAlpha" operator="out"></feComposite><feGaussianBlur stdDeviation="1"></feGaussianBlur><feOffset dx="5" dy="5" result="afterOffset"></feOffset><feFlood flood-color="#4bb082" flood-opacity="0.8"></feFlood><feComposite in2="afterOffset" operator="in"></feComposite><feMorphology operator="dilate" radius="1"></feMorphology><feComposite in2="SourceAlpha" operator="in"></feComposite></filter><path d="M233.56 295.44C240.85 295.44 246.76 301.35 246.76 308.64C246.76 324.94 246.76 360.67 246.76 376.98C246.76 384.27 240.85 390.18 233.56 390.18C225.55 390.18 214.72 390.18 206.71 390.18C199.42 390.18 193.51 384.27 193.51 376.98C193.51 360.67 193.51 324.94 193.51 308.64C193.51 301.35 199.42 295.44 206.71 295.44C214.72 295.44 225.55 295.44 233.56 295.44Z" id="c2DzkBE8zT" fill="white" fill-opacity="1" filter="url(#shadow14280855)"></path></g></g><g><use xlink:href="#b3v7S7oa3" opacity="1" fill="#231336" fill-opacity="1"></use><g><filter id="shadow7369804" x="321.17" y="282.44" width="84.25" height="125.74" filterUnits="userSpaceOnUse" primitiveUnits="userSpaceOnUse"><feFlood></feFlood><feComposite in2="SourceAlpha" operator="out"></feComposite><feGaussianBlur stdDeviation="1"></feGaussianBlur><feOffset dx="5" dy="5" result="afterOffset"></feOffset><feFlood flood-color="#4bb082" flood-opacity="0.8"></feFlood><feComposite in2="afterOffset" operator="in"></feComposite><feMorphology operator="dilate" radius="1"></feMorphology><feComposite in2="SourceAlpha" operator="in"></feComposite></filter><path d="M374.22 295.44C381.51 295.44 387.42 301.35 387.42 308.64C387.42 324.94 387.42 360.67 387.42 376.98C387.42 384.27 381.51 390.18 374.22 390.18C366.21 390.18 355.38 390.18 347.36 390.18C340.08 390.18 334.17 384.27 334.17 376.98C334.17 360.67 334.17 324.94 334.17 308.64C334.17 301.35 340.08 295.44 347.36 295.44C355.38 295.44 366.21 295.44 374.22 295.44Z" id="a28z8GW2DS" fill="white" fill-opacity="1" filter="url(#shadow7369804)"></path></g></g><g><use xlink:href="#a3e8sVPHyr" opacity="1" fill="#231336" fill-opacity="1"></use></g><g><use xlink:href="#cMZNiQ66D" opacity="1" fill="#231336" fill-opacity="1"></use></g></g></g></svg>